<svg width="35" height="35" viewBox="0 0 35 35" fill="none" xmlns="http://www.w3.org/2000/svg">
<g clip-path="url(#clip0_94_117)">
<path d="M17.5 35C27.165 35 35 27.165 35 17.5C35 7.83502 27.165 0 17.5 0C7.83502 0 0 7.83502 0 17.5C0 27.165 7.83502 35 17.5 35Z" fill="#627EEA"/>
<path d="M18.0447 4.375V14.0766L26.2445 17.7406L18.0447 4.375Z" fill="white" fill-opacity="0.602"/>
<path d="M18.0447 4.375L9.84375 17.7406L18.0447 14.0766V4.375Z" fill="white"/>
<path d="M18.0447 24.0275V30.6195L26.25 19.2675L18.0447 24.0275Z" fill="white" fill-opacity="0.602"/>
<path d="M18.0447 30.6195V24.0264L9.84375 19.2675L18.0447 30.6195Z" fill="white"/>
<path d="M18.0447 22.5017L26.2445 17.7406L18.0447 14.0787V22.5017Z" fill="white" fill-opacity="0.2"/>
<path d="M9.84375 17.7406L18.0447 22.5017V14.0787L9.84375 17.7406Z" fill="white" fill-opacity="0.602"/>
</g>
<defs>
<clipPath id="clip0_94_117">
<rect width="35" height="35" fill="white"/>
</clipPath>
</defs>
</svg>
